<svg xmlns="http://www.w3.org/2000/svg" viewBox="0 0 900 887"><path fill="#fff" d="M413,582 448,638 501,687 512,726 562,784 574,817 576,847 586,853 618,851 623,836 597,786 574,703 545,662 535,634 516,620 458,603Z"/><path fill="#fff" d="M749,447 725,454 705,477 689,514 683,547 684,586 693,621 708,646 732,661 745,659 727,652 705,622 694,553 700,515 713,482Z"/><path fill="#fff" d="M356,380 344,421 314,459 297,504 263,563 231,570 220,545 200,522 174,510 151,509 115,517 89,531 57,574 52,619 64,654 87,678 123,690 165,685 203,665 226,631 234,587 309,575 252,782 231,809 190,834 190,848 273,846 282,841 282,792 336,719 337,670 392,601 362,439 344,471 359,417Z"/><path fill="#fff" d="M529,343 511,359 501,380 506,417 489,442 487,483 477,509 492,487 500,441 523,414 513,407 510,386Z"/><path fill="#fff" d="M672,52 610,65 564,83 481,138 414,218 387,272 374,315 402,298 433,291 419,308 421,324 441,339 467,348 438,326 432,311 488,257 460,275 459,263 438,252 438,221 460,182 475,173 507,173 528,187 536,218 518,253 524,285 572,301 591,325 594,351 580,366 588,382 587,407 556,440 542,481 510,514 513,538 572,537 592,478 608,458 637,437 672,426 731,423 762,431 790,456 811,502 818,544 856,544 869,558 858,575 818,573 810,612 792,647 765,672 735,682 659,680 627,669 588,628 571,562 527,561 540,595 538,622 554,658 603,694 659,716 726,725 779,721 841,703 899,668Z"/><path fill="#000" d="M163,522 145,531 127,552 116,580 115,609 123,635 140,656 174,667 181,665 162,660 141,641 128,602 130,576 140,551 159,529 174,522Z"/><path fill="#000" d="M747,198 705,189 622,206 612,416 663,415 667,353 727,337 761,309 773,280 774,242 764,215Z"/></svg>